<?xml version="1.0" encoding="UTF-8" standalone="no"?>
<!-- Created with Inkscape (http://www.inkscape.org/) -->

<svg
   xmlns:dc="http://purl.org/dc/elements/1.1/"
   xmlns:cc="http://creativecommons.org/ns#"
   xmlns:rdf="http://www.w3.org/1999/02/22-rdf-syntax-ns#"
   xmlns:svg="http://www.w3.org/2000/svg"
   xmlns="http://www.w3.org/2000/svg"
   xmlns:sodipodi="http://sodipodi.sourceforge.net/DTD/sodipodi-0.dtd"
   xmlns:inkscape="http://www.inkscape.org/namespaces/inkscape"
   width="1600"
   height="900"
   viewBox="0 0 423.33332 238.12501"
   version="1.1"
   id="svg8"
   sodipodi:docname="Ubuntu BG.svg"
   inkscape:version="0.92.3 (2405546, 2018-03-11)">
  <defs
     id="defs2">
    <inkscape:path-effect
       effect="powerstroke"
       id="path-effect836"
       is_visible="true"
       offset_points="1,4.2228823"
       sort_points="true"
       interpolator_type="CubicBezierJohan"
       interpolator_beta="0.2"
       start_linecap_type="zerowidth"
       linejoin_type="extrp_arc"
       miter_limit="4"
       end_linecap_type="zerowidth" />
    <inkscape:path-effect
       effect="powerstroke"
       id="path-effect832"
       is_visible="true"
       offset_points="1,4.2228823"
       sort_points="true"
       interpolator_type="CubicBezierJohan"
       interpolator_beta="0.2"
       start_linecap_type="zerowidth"
       linejoin_type="extrp_arc"
       miter_limit="4"
       end_linecap_type="zerowidth" />
    <inkscape:path-effect
       effect="powerstroke"
       id="path-effect828"
       is_visible="true"
       offset_points="1,4.2228823"
       sort_points="true"
       interpolator_type="CubicBezierJohan"
       interpolator_beta="0.2"
       start_linecap_type="zerowidth"
       linejoin_type="extrp_arc"
       miter_limit="4"
       end_linecap_type="zerowidth" />
    <inkscape:path-effect
       effect="powerstroke"
       id="path-effect939"
       is_visible="true"
       offset_points="1,4.2228823"
       sort_points="true"
       interpolator_type="CubicBezierJohan"
       interpolator_beta="0.2"
       start_linecap_type="zerowidth"
       linejoin_type="extrp_arc"
       miter_limit="4"
       end_linecap_type="zerowidth" />
  </defs>
  <sodipodi:namedview
     id="base"
     pagecolor="#ffffff"
     bordercolor="#666666"
     borderopacity="1.0"
     inkscape:pageopacity="0.0"
     inkscape:pageshadow="2"
     inkscape:zoom="0.5"
     inkscape:cx="775.86319"
     inkscape:cy="450.61292"
     inkscape:document-units="mm"
     inkscape:current-layer="layer2"
     showgrid="false"
     inkscape:window-width="1568"
     inkscape:window-height="872"
     inkscape:window-x="32"
     inkscape:window-y="0"
     inkscape:window-maximized="1"
     units="px"
     fit-margin-top="0"
     fit-margin-left="0"
     fit-margin-right="0"
     fit-margin-bottom="0"
     inkscape:snap-global="false" />
  <metadata
     id="metadata5">
    <rdf:RDF>
      <cc:Work
         rdf:about="">
        <dc:format>image/svg+xml</dc:format>
        <dc:type
           rdf:resource="http://purl.org/dc/dcmitype/StillImage" />
        <dc:title />
      </cc:Work>
    </rdf:RDF>
  </metadata>
  <g
     inkscape:label="Layer 1"
     inkscape:groupmode="layer"
     id="layer1"
     transform="translate(362.20361,-4.2451015)"
     style="display:inline">
    <rect
       style="opacity:1;fill:#1e1d2d;fill-opacity:1;stroke:none;stroke-width:1.42492783;stroke-linejoin:round;stroke-miterlimit:4;stroke-dasharray:none;stroke-dashoffset:0;stroke-opacity:0.98684208"
       id="rect896"
       width="423.33334"
       height="238.125"
       x="-362.20361"
       y="4.2451015" />
  </g>
  <g
     inkscape:groupmode="layer"
     id="layer2"
     inkscape:label="Logo"
     style="display:inline">
    <g
       id="g1389"
       transform="translate(-0.5612607,-0.46772147)">
      <path
         inkscape:connector-curvature="0"
         style="display:inline;fill:#242235;fill-opacity:1;stroke-width:0.26821315"
         d="m 212.22898,81.562463 c -21.02104,0 -38.06235,16.998415 -38.06235,37.966707 0,20.96965 17.04104,37.96881 38.06235,37.96881 21.02131,0 38.06025,-16.99916 38.06025,-37.96881 0,-20.968565 -17.03894,-37.966707 -38.06025,-37.966707 z m 12.45632,11.794192 c 0.78862,0.02047 1.58315,0.232244 2.31409,0.653491 2.34196,1.346646 3.14248,4.33159 1.79116,6.666734 -1.34969,2.3346 -4.34306,3.13424 -6.68369,1.78624 -2.34061,-1.34798 -3.14247,-4.332663 -1.79116,-6.667261 0.9294,-1.604675 2.63464,-2.48423 4.3696,-2.439204 z m -12.45632,5.201751 c 1.90935,0 3.76032,0.255137 5.52035,0.73197 0.31017,1.983404 1.4828,3.814234 3.36046,4.895674 1.87631,1.08144 4.05135,1.17922 5.92579,0.45781 3.54101,3.50444 5.83923,8.25769 6.17545,13.54223 l -7.08231,0.11145 c -0.62491,-7.1123 -6.60798,-12.68836 -13.89974,-12.68836 -2.09947,0 -4.09434,0.46509 -5.88016,1.29285 l -3.44595,-6.17283 c 2.81111,-1.389504 5.9771,-2.170794 9.32611,-2.170794 z m -11.65803,3.517014 3.63582,6.06348 c -3.58855,2.51784 -5.93418,6.68169 -5.93418,11.39027 0,4.71181 2.34563,8.87423 5.93418,11.39394 l -3.63582,6.06348 c -4.21184,-2.80741 -7.34947,-7.08778 -8.67312,-12.1055 1.56615,-1.25852 2.57005,-3.1869 2.57005,-5.35139 0,-2.16316 -1.00364,-4.09209 -2.57005,-5.35035 1.32365,-5.01799 4.46128,-9.29811 8.67312,-12.10393 z m -12.99132,12.57325 c 2.70451,0 4.89515,2.1856 4.89515,4.8805 0,2.69599 -2.19064,4.88207 -4.89515,4.88207 -2.70127,0 -4.89252,-2.18582 -4.89252,-4.88207 0,-2.6949 2.19125,-4.8805 4.89252,-4.8805 z m 38.54909,6.1158 7.08231,0.10935 c -0.33622,5.28454 -2.63417,10.03775 -6.17545,13.54381 -1.87444,-0.72141 -4.04948,-0.62311 -5.92579,0.45833 -1.87792,1.07957 -3.05056,2.90989 -3.36046,4.89463 -1.76003,0.47764 -3.61128,0.73144 -5.52035,0.73144 -3.34927,0 -6.515,-0.78074 -9.32611,-2.17132 l 3.44595,-6.17282 c 1.78608,0.82936 3.78095,1.29389 5.88016,1.29389 7.29176,0 13.27457,-5.57689 13.89974,-12.68731 z m -1.70672,15.18041 c 1.73505,-0.0455 3.43952,0.83312 4.36855,2.43815 1.35131,2.33488 0.54973,5.32111 -1.79064,6.66936 -2.34062,1.34638 -5.33263,0.54572 -6.68421,-1.78729 -1.35132,-2.33459 -0.54946,-5.31847 1.79116,-6.66673 0.73136,-0.42125 1.52649,-0.63283 2.31514,-0.65349 z"
         id="path843" />
      <path
         transform="translate(362.2036,-4.2451015)"
         id="path868"
         d="m -169.99864,123.30667 c 0,2.66277 -2.15873,4.82203 -4.82335,4.82203 -2.66144,0 -4.82018,-2.159 -4.82018,-4.82203 0,-2.66171 2.15874,-4.82044 4.82018,-4.82044 2.66462,0 4.82335,2.15873 4.82335,4.82044 z m 27.43042,23.44367 c 1.33165,2.30426 4.2791,3.09457 6.58521,1.76477 2.30585,-1.33164 3.09589,-4.28069 1.76451,-6.5868 -1.33139,-2.30584 -4.27911,-3.0943 -6.58495,-1.76292 -2.30611,1.33165 -3.09616,4.27911 -1.76477,6.58495 z m 8.34945,-42.06398 c 1.33139,-2.30638 0.54293,-5.254629 -1.7645,-6.584689 -2.30452,-1.33138 -5.2533,-0.54134 -6.58522,1.76398 -1.33138,2.305839 -0.54133,5.253829 1.76477,6.585209 2.30611,1.33139 5.25516,0.54134 6.58495,-1.7645 z m -16.31738,4.87177 c 7.18423,0 13.07941,5.50704 13.6951,12.53172 l 6.97759,-0.11006 c -0.33126,-5.21944 -2.5953,-9.91368 -6.08409,-13.37495 -1.8468,0.71252 -3.98966,0.61568 -5.8383,-0.45244 -1.84997,-1.06812 -3.0054,-2.87629 -3.311,-4.83526 -1.73407,-0.47096 -3.55811,-0.72311 -5.4393,-0.72311 -3.29962,0 -6.41853,0.77153 -9.18819,2.14392 l 3.39514,6.09679 c 1.75948,-0.81756 3.72454,-1.27661 5.79305,-1.27661 z m -13.75013,13.74854 c 0,-4.65058 2.31087,-8.76326 5.8465,-11.25008 l -3.58246,-5.98858 c -4.14973,2.77125 -7.24085,6.99849 -8.54498,11.95467 1.54331,1.24275 2.53206,3.14775 2.53206,5.28426 0,2.13783 -0.98901,4.04283 -2.53206,5.28584 1.30413,4.95591 4.39525,9.18316 8.54498,11.95599 l 3.58246,-5.98857 c -3.53563,-2.48867 -5.8465,-6.59977 -5.8465,-11.25353 z m 13.75013,13.75119 c -2.06825,0 -4.03331,-0.45879 -5.79305,-1.27794 l -3.39514,6.0968 c 2.76966,1.37345 5.88831,2.14418 9.18819,2.14418 1.88092,0 3.70523,-0.25029 5.4393,-0.72205 0.30533,-1.96029 1.46077,-3.76846 3.311,-4.83473 1.84864,-1.06812 3.9915,-1.16522 5.8383,-0.4527 3.48906,-3.46287 5.75283,-8.1571 6.08409,-13.37654 l -6.97759,-0.10821 c -0.61595,7.02283 -6.51087,12.53119 -13.6951,12.53119 z"
         inkscape:connector-curvature="0"
         style="display:inline;fill:#7e7e7e;fill-opacity:1;stroke-width:0.26458332" />
      <path
         style="display:inline;fill:none;fill-opacity:1;stroke:#1e1d2d;stroke-width:1.3234458;stroke-miterlimit:4;stroke-dasharray:none;stroke-opacity:0.87777776"
         inkscape:connector-curvature="0"
         d="m 192.67268,119.43575 c 0,2.66277 -2.15873,4.82203 -4.82335,4.82203 -2.66144,0 -4.82018,-2.159 -4.82018,-4.82203 0,-2.66171 2.15874,-4.82044 4.82018,-4.82044 2.66462,0 4.82335,2.15873 4.82335,4.82044 z m 27.43042,23.44367 c 1.33165,2.30426 4.2791,3.09457 6.58521,1.76477 2.30585,-1.33164 3.09589,-4.28069 1.76451,-6.5868 -1.33139,-2.30584 -4.27911,-3.0943 -6.58495,-1.76292 -2.30611,1.33165 -3.09616,4.27911 -1.76477,6.58495 z m 8.34945,-42.06398 c 1.33139,-2.306384 0.54293,-5.254633 -1.7645,-6.584693 -2.30452,-1.33138 -5.2533,-0.54134 -6.58522,1.76398 -1.33138,2.305839 -0.54133,5.253833 1.76477,6.585213 2.30611,1.33139 5.25516,0.54134 6.58495,-1.7645 z m -16.31738,4.87177 c 7.18423,0 13.07941,5.50704 13.6951,12.53172 l 6.97759,-0.11006 c -0.33126,-5.21944 -2.5953,-9.91368 -6.08409,-13.37495 -1.8468,0.71252 -3.98966,0.61568 -5.8383,-0.45244 -1.84997,-1.06812 -3.0054,-2.87629 -3.311,-4.835264 -1.73407,-0.47096 -3.55811,-0.72311 -5.4393,-0.72311 -3.29962,0 -6.41853,0.77153 -9.18819,2.143924 l 3.39514,6.09679 c 1.75948,-0.81756 3.72454,-1.27661 5.79305,-1.27661 z m -13.75013,13.74854 c 0,-4.65058 2.31087,-8.76326 5.8465,-11.25008 l -3.58246,-5.98858 c -4.14973,2.77125 -7.24085,6.99849 -8.54498,11.95467 1.54331,1.24275 2.53206,3.14775 2.53206,5.28426 0,2.13783 -0.98901,4.04283 -2.53206,5.28584 1.30413,4.95591 4.39525,9.18316 8.54498,11.95599 l 3.58246,-5.98857 c -3.53563,-2.48867 -5.8465,-6.59977 -5.8465,-11.25353 z m 13.75013,13.75119 c -2.06825,0 -4.03331,-0.45879 -5.79305,-1.27794 l -3.39514,6.0968 c 2.76966,1.37345 5.88831,2.14418 9.18819,2.14418 1.88092,0 3.70523,-0.25029 5.4393,-0.72205 0.30533,-1.96029 1.46077,-3.76846 3.311,-4.83473 1.84864,-1.06812 3.9915,-1.16522 5.8383,-0.4527 3.48906,-3.46287 5.75283,-8.1571 6.08409,-13.37654 l -6.97759,-0.10821 c -0.61595,7.02283 -6.51087,12.53119 -13.6951,12.53119 z"
         id="path837" />
      <path
         transform="scale(0.26458333)"
         id="path866"
         d="m 800.00391,308.26758 c -78.27799,0 -141.73633,63.45454 -141.73633,141.72851 0,78.27901 63.45732,141.73633 141.73633,141.73633 78.279,0 141.72851,-63.45732 141.72851,-141.73633 0,-78.27499 -63.44951,-141.72851 -141.72851,-141.72851 z m 46.38476,44.02734 c 2.93666,0.0764 5.89532,0.86696 8.61719,2.43946 8.72099,5.02699 11.70195,16.16969 6.66992,24.88671 -5.02598,8.71499 -16.17266,11.7 -24.88867,6.66797 -8.71597,-5.03198 -11.70191,-16.17369 -6.66992,-24.88867 3.46089,-5.9902 9.81084,-9.27355 16.27148,-9.10547 z m -46.38476,19.41797 c 7.11001,0 14.00267,0.95242 20.55664,2.73242 1.15502,7.40398 5.52166,14.2384 12.51367,18.27539 6.98698,4.03699 15.08637,4.40198 22.0664,1.70899 13.18598,13.08196 21.74409,30.82571 22.9961,50.55273 l -26.37305,0.41602 c -2.32702,-26.54997 -24.60677,-47.36524 -51.75976,-47.36524 -7.81799,0 -15.24648,1.73618 -21.89649,4.82618 l -12.83203,-23.04297 c 10.46801,-5.18699 22.25751,-8.10352 34.72852,-8.10352 z m -43.41211,13.12891 13.53906,22.63476 c -13.36301,9.39901 -22.09766,24.94254 -22.09766,42.51953 0,17.58902 8.73465,33.12721 22.09766,42.53321 l -13.53906,22.63476 c -15.68402,-10.47998 -27.36788,-26.45845 -32.29688,-45.18945 5.832,-4.69799 9.57031,-11.89658 9.57031,-19.97656 0,-8.075 -3.73733,-15.27565 -9.57031,-19.97266 4.929,-18.73202 16.61286,-34.70958 32.29688,-45.18359 z m -48.37696,46.93554 c 10.07101,0 18.22852,8.15875 18.22852,18.21875 0,10.06402 -8.15751,18.22461 -18.22852,18.22461 -10.05898,0 -18.21875,-8.15961 -18.21875,-18.22461 0,-10.06 8.15977,-18.21875 18.21875,-18.21875 z m 143.54883,22.83008 26.37305,0.4082 c -1.25201,19.72702 -9.8091,37.47059 -22.9961,50.5586 -6.98003,-2.69299 -15.07942,-2.32605 -22.0664,1.71094 -6.993,4.02999 -11.35967,10.86251 -12.51367,18.27148 -6.55397,1.78303 -13.44765,2.73047 -20.55664,2.73047 -12.47199,0 -24.26051,-2.91448 -34.72852,-8.10547 l 12.83203,-23.04297 c 6.65099,3.096 14.07948,4.83008 21.89649,4.83008 27.15299,0 49.43176,-20.81835 51.75976,-47.36133 z m -6.35547,56.66797 c 6.46095,-0.16971 12.80806,3.11001 16.26758,9.10156 5.03199,8.71601 2.04706,19.86352 -6.66797,24.89649 -8.716,5.02601 -19.85761,2.03714 -24.89062,-6.67188 -5.03203,-8.71498 -2.04609,-19.85371 6.66992,-24.88672 2.72343,-1.57249 5.6843,-2.36231 8.62109,-2.43945 z"
         style="display:inline;fill:#3c3b4a;fill-opacity:1;stroke-width:0.99999994"
         inkscape:connector-curvature="0" />
    </g>
  </g>
</svg>
